HIERARCHY
ROOT Hips
{
	OFFSET -3.958830 18.904000 13.208200
	CHANNELS 6 Xposition Yposition Zposition Zrotation Yrotation Xrotation 
	JOINT LHipJoint
	{
		OFFSET 0.000000 0.000000 0.000000
		CHANNELS 3 Zrotation Yrotation Xrotation
		JOINT LeftUpLeg
		{
			OFFSET 1.800000 -1.400000 0.085000
			CHANNELS 3 Zrotation Yrotation Xrotation
			JOINT LeftLeg
			{
				OFFSET 2.215000 -6.000000 0.000000
				CHANNELS 3 Zrotation Yrotation Xrotation
				JOINT LeftFoot
				{
					OFFSET 2.500000 -6.900000 0.000000
					CHANNELS 3 Zrotation Yrotation Xrotation
					JOINT LeftToeBase
					{
						OFFSET 0.200000 -0.500000 1.950000
						CHANNELS 3 Zrotation Yrotation Xrotation
						End Site
						{
							OFFSET 0.000000 0.000000 0.000000
						}
					}
				}
			}
		}
	}
	JOINT RHipJoint
	{
		OFFSET 0.000000 0.000000 0.000000
		CHANNELS 3 Zrotation Yrotation Xrotation
		JOINT RightUpLeg
		{
			OFFSET -1.800000 -1.400000 0.085000
			CHANNELS 3 Zrotation Yrotation Xrotation
			JOINT RightLeg
			{
				OFFSET -2.215000 -6.000000 0.000000
				CHANNELS 3 Zrotation Yrotation Xrotation
				JOINT RightFoot
				{
					OFFSET -2.500000 -6.900000 0.000000
					CHANNELS 3 Zrotation Yrotation Xrotation
					JOINT RightToeBase
					{
						OFFSET -0.200000 -0.500000 1.950000
						CHANNELS 3 Zrotation Yrotation Xrotation
						End Site
						{
							OFFSET 0.000000 0.000000 0.000000
						}
					}
				}
			}
		}
	}
	JOINT LowerBack
	{
		OFFSET 0.000000 0.000000 0.000000
		CHANNELS 3 Zrotation Yrotation Xrotation
		JOINT Spine
		{
			OFFSET -0.087000 1.940000 -0.288900
			CHANNELS 3 Zrotation Yrotation Xrotation
			JOINT Spine1
			{
				OFFSET 0.000000 1.950000 0.060000
				CHANNELS 3 Zrotation Yrotation Xrotation
				JOINT Neck
				{
					OFFSET 0.000000 0.000000 0.000000
					CHANNELS 3 Zrotation Yrotation Xrotation
					JOINT Neck1
					{
						OFFSET 0.000000 1.600000 0.340000
						CHANNELS 3 Zrotation Yrotation Xrotation
						JOINT Head
						{
							OFFSET 0.000000 1.667000 -0.240000
							CHANNELS 3 Zrotation Yrotation Xrotation
							End Site
							{
								OFFSET 0.000000 0.000000 0.000000
							}
						}
					}
				}
				JOINT LeftShoulder
				{
					OFFSET 0.000000 0.000000 0.000000
					CHANNELS 3 Zrotation Yrotation Xrotation
					JOINT LeftArm
					{
						OFFSET 2.700000 1.550000 -0.730000
						CHANNELS 3 Zrotation Yrotation Xrotation
						JOINT LeftForeArm
						{
							OFFSET 5.450000 0.000000 0.000000
							CHANNELS 3 Zrotation Yrotation Xrotation
							JOINT LeftHand
							{
								OFFSET 3.450000 0.000000 0.000000
								CHANNELS 3 Zrotation Yrotation Xrotation
								JOINT LeftHandIndex1
								{
									OFFSET 0.750000 0.000000 0.000000
									CHANNELS 3 Zrotation Yrotation Xrotation
									End Site
									{
										OFFSET 0.000000 0.000000 0.000000
									}
								}
							}
						}
					}
				}
				JOINT RightShoulder
				{
					OFFSET 0.000000 0.000000 0.000000
					CHANNELS 3 Zrotation Yrotation Xrotation
					JOINT RightArm
					{
						OFFSET -2.700000 1.550000 -0.730000
						CHANNELS 3 Zrotation Yrotation Xrotation
						JOINT RightForeArm
						{
							OFFSET -5.450000 0.000000 0.000000
							CHANNELS 3 Zrotation Yrotation Xrotation
							JOINT RightHand
							{
								OFFSET -3.450000 0.000000 0.000000
								CHANNELS 3 Zrotation Yrotation Xrotation
								JOINT RightHandIndex1
								{
									OFFSET -0.750000 0.000000 0.000000
									CHANNELS 3 Zrotation Yrotation Xrotation
									End Site
									{
										OFFSET 0.000000 0.000000 0.000000
									}
								}
							}
						}
					}
				}
			}
		}
	}
}
MOTION
Frames: 11
Frame Time: 0.016667
18.982060 16.452210 -20.065930 -17.453322 -41.665124 0.719037 -15.831839 14.258560 3.273309 14.483347 1.343892 11.776334 -16.712504 10.189504 9.967030 0.401444 7.173459 2.212910 0.618580 0.646460 0.367260 17.802688 -7.620476 4.427865 -9.840425 0.082594 -51.841054 4.960906 -2.517032 0.226161 -0.078473 -1.479281 3.596821 0.379570 0.011410 0.052360 -1.620448 -6.985798 -8.835619 20.299181 -14.674960 34.812156 -6.168120 -8.023759 9.757104 13.871671 -1.356430 -15.252254 -3.806834 -5.971531 24.037065 -0.654200 -3.833070 -22.566420 -7.157903 -30.175050 8.227672 -8.264701 -21.220186 -6.877086 -46.835518 -63.728045 25.210068 -2.618314 4.204832 0.483810 -0.129050 0.148880 0.194040 -20.852382 30.806819 8.664620 -34.354361 -9.973144 -18.568264 -41.612624 -15.750220 0.293062 3.608075 -1.894284 -0.116090 0.224160 -0.206620 -0.047810 
18.943820 16.364640 -20.092760 -15.693563 -44.163729 -2.023718 -15.884075 14.415355 3.375246 14.315589 1.633033 13.268345 -19.072930 11.249870 11.356500 0.427167 7.654306 2.027915 0.582090 0.530640 0.510510 17.765136 -7.481774 4.313693 -9.334846 0.608688 -51.265840 5.259711 -2.634134 1.501479 -0.100847 -1.273033 3.644534 0.310110 -0.118660 0.012720 -1.310345 -7.550171 -8.916812 17.158945 -13.998062 39.831891 -7.311954 -6.734335 6.637668 14.866529 0.112159 -15.343043 -2.222512 -6.975510 26.264617 -4.435620 -2.990610 -26.903070 -10.226707 -29.638663 7.563489 -5.815467 -19.836559 -5.785990 -50.664093 -60.932355 27.220568 -2.621488 3.999295 0.668950 -0.220710 0.222730 0.087250 -20.007670 30.991069 8.721047 -33.127388 -8.164919 -19.421875 -42.634468 -15.464343 0.347000 3.567003 -1.780763 -0.198170 0.245100 -0.185260 -0.181590 
18.844790 16.278440 -20.159300 -11.083488 -46.208480 -9.601359 -15.849955 14.750649 3.437399 14.063090 1.538137 14.868361 -21.334699 13.755772 17.759220 0.643179 8.549090 1.714356 0.556800 0.454170 0.568300 17.773597 -7.612124 3.802234 -10.502180 -0.310934 -45.325829 8.119313 -2.765678 2.622945 -0.165655 -1.305582 3.617150 0.228520 -0.221400 -0.048580 -0.853074 -8.361200 -8.888101 10.084407 -11.989081 47.706563 -7.096103 -6.713053 5.500708 15.425994 -0.603292 -16.447296 -5.027495 -6.478475 29.743280 -2.849580 -3.887240 -32.212250 -11.124332 -29.619224 8.647684 -7.311400 -17.543852 -8.485857 -44.549993 -59.222500 21.760892 -2.265164 3.978398 0.832490 -0.376800 0.301060 0.032770 -20.245416 32.664889 8.813356 -33.220226 -8.003403 -21.328733 -43.068190 -16.250917 0.445420 3.650098 -1.653422 -0.231760 0.285460 -0.172940 -0.230800 
18.746050 16.142770 -20.137070 -9.336095 -43.974527 -12.338370 -15.750737 14.841034 3.427935 14.346351 0.037335 13.083524 -20.611572 15.646237 25.776356 0.856575 9.144745 1.472822 0.579620 0.493550 0.548690 17.808031 -7.908560 3.585979 -12.918060 -2.131070 -43.317204 8.812377 -3.549988 5.692050 -0.240665 -1.640331 3.471866 0.188110 -0.298200 -0.037300 -1.014731 -8.317524 -8.810926 8.931958 -13.380684 49.761595 -7.475329 -8.521998 4.205813 15.030692 -0.962623 -17.915489 -7.205473 -5.127368 32.676423 -0.657790 -4.163160 -32.691840 -11.674332 -30.564067 10.084646 -9.601443 -17.762412 -9.476590 -39.916109 -56.055203 17.615807 -2.027441 4.021392 0.837690 -0.454730 0.359670 0.048760 -19.253054 33.729601 8.591484 -35.324241 -6.936509 -21.422745 -40.042340 -16.582250 0.465548 3.698310 -1.561026 -0.147510 0.205770 -0.217000 -0.190830 
18.657930 16.036630 -20.105730 -8.165370 -44.080263 -13.298190 -15.666521 14.681934 3.446790 14.079923 -0.541761 12.537858 -21.111988 16.724887 28.942446 1.040347 9.519008 1.337345 0.499380 0.390440 0.477580 17.875536 -8.014628 3.696660 -14.271620 -2.373873 -43.959555 11.020472 -4.535743 9.386391 -0.283268 -2.055224 3.297420 0.076040 -0.308660 0.010540 -1.294155 -7.893683 -8.832817 8.804158 -14.255486 51.407657 -8.360054 -8.897802 2.137709 14.583582 -0.404883 -19.521625 -7.455790 -4.424994 35.654671 0.930390 -4.392540 -31.593950 -12.605178 -31.725089 11.515610 -11.469916 -17.607296 -9.703506 -35.340788 -52.780921 14.186393 -2.002556 3.998668 0.827020 -0.474950 0.372270 0.022440 -17.728096 35.137185 8.370100 -36.429005 -5.594515 -21.961421 -41.373891 -15.620752 0.462116 3.661095 -1.551132 -0.086790 0.133860 -0.163910 -0.168770 
18.549650 15.920440 -20.063990 -7.068129 -43.523181 -14.302429 -15.580780 14.460781 3.469829 14.051818 -1.260356 12.370128 -21.351994 17.856354 32.245956 1.122308 9.913290 1.203681 0.533480 0.452350 0.512090 17.947550 -8.250461 3.730805 -15.125046 -2.566678 -44.563521 12.477758 -6.146580 15.639428 -0.358550 -2.729296 3.040510 0.117480 -0.336630 -0.035020 -1.632348 -7.194187 -8.786149 9.274303 -15.095640 50.725680 -9.704191 -9.715292 2.597516 13.799032 -0.251638 -18.863530 -7.060262 -4.321848 37.172404 1.512340 -4.581320 -33.034660 -13.692840 -32.292555 11.015716 -11.813621 -18.863325 -8.901107 -32.831250 -49.646245 12.425848 -2.081429 3.826983 0.843790 -0.508720 0.398700 0.025710 -15.648091 35.398482 7.451569 -38.307223 -2.407651 -22.035204 -41.672541 -14.270715 0.104378 3.549558 -1.493042 -0.098290 0.179040 -0.197560 -0.169900 
18.385370 15.838210 -20.008770 -7.201226 -41.610352 -12.691656 -15.551808 14.317022 3.500966 15.344400 -2.756294 10.677618 -21.374951 18.501678 34.887089 1.182903 10.247197 1.072457 0.543780 0.465570 0.498600 17.967403 -8.332303 3.721820 -15.157226 -2.787656 -44.926258 13.832189 -8.041950 21.101769 -0.476801 -3.553577 2.740321 0.100730 -0.331900 0.043070 -1.886597 -6.909669 -8.780764 10.964557 -16.828654 49.067660 -10.859561 -10.537685 0.303514 13.403849 0.248102 -18.143284 -6.020052 -3.568218 37.638655 0.478590 -3.369920 -33.363500 -15.649831 -31.960344 10.288885 -12.126346 -20.493203 -6.385549 -34.275312 -46.836884 12.890601 -2.276660 3.731591 0.841440 -0.481650 0.435900 0.045200 -13.141068 34.546731 6.610894 -40.300240 0.552884 -21.026275 -40.872130 -12.914861 0.039472 3.367654 -1.452288 -0.049380 0.140720 -0.193430 -0.156390 
18.231390 15.798600 -19.973190 -5.875620 -39.861359 -13.421242 -15.572857 14.335758 3.485236 15.187227 -3.826772 11.029420 -20.222443 18.224920 36.612343 1.292482 10.211349 1.041954 0.595000 0.594270 0.489160 17.948907 -8.347634 3.682957 -15.857760 -3.840478 -44.567995 15.527077 -10.700764 27.765236 -0.669601 -4.846270 2.290628 0.121210 -0.420310 0.065720 -1.834623 -7.106991 -8.848422 8.887346 -16.494112 49.358703 -10.115803 -11.333933 -0.133535 13.233867 1.430432 -19.173909 -4.924199 -3.669126 39.986531 -0.304290 -3.173480 -32.451450 -15.846234 -32.912368 10.517663 -11.633355 -22.715289 -6.095124 -31.761974 -45.200118 11.969928 -2.171400 3.813412 0.782190 -0.502090 0.503720 0.071650 -13.028997 34.700478 7.253413 -39.273235 -0.368784 -20.352971 -40.976763 -12.237285 -0.050195 3.406056 -1.526371 0.058020 0.045080 -0.269940 -0.107200 
18.015070 15.742040 -19.931030 -5.888389 -38.864745 -10.947909 -15.598208 14.246006 3.572139 16.841062 -5.170909 9.836638 -21.425399 18.607076 36.381723 1.347000 10.358422 1.009780 0.483010 0.442440 0.446520 17.914323 -8.304218 3.688605 -14.202336 -3.491521 -45.260468 16.124919 -12.832294 32.859461 -0.792736 -5.683320 2.034955 0.012640 -0.386240 0.074150 -1.816050 -7.154138 -8.947438 8.517287 -16.619708 47.077169 -9.341286 -11.213921 -2.052798 12.754089 2.429126 -19.802608 -3.416698 -4.098598 41.795491 -0.910180 -3.005250 -29.700400 -14.959307 -32.711199 11.084176 -12.858101 -23.209162 -5.341389 -33.941858 -48.711809 14.203430 -2.217705 3.827803 0.766710 -0.472760 0.471780 0.036920 -12.957165 33.910702 7.617682 -39.358787 0.084976 -18.991875 -39.175666 -12.120722 0.338951 3.395273 -1.415759 0.048340 0.026490 -0.216120 -0.117120 
17.769740 15.751870 -19.891230 -6.125085 -39.854127 -9.564688 -15.584204 14.347366 3.678840 18.705451 -5.356949 11.346061 -22.422636 18.092491 32.777739 1.368183 10.003671 1.112761 0.511340 0.522280 0.448850 17.888782 -8.422923 3.504920 -10.202236 -1.968421 -44.552693 13.978065 -13.930275 38.979695 -0.946060 -6.287294 1.899326 0.018050 -0.467040 0.048790 -1.727561 -7.264642 -8.938595 7.953149 -16.294061 46.457301 -9.101671 -10.670200 -4.986215 12.887619 2.784711 -20.188569 -3.212126 -4.544653 43.231184 -2.804700 -2.690420 -29.285700 -14.618480 -31.959338 10.620295 -10.896620 -22.229171 -3.987162 -40.018794 -52.431955 19.244151 -2.125120 3.959393 0.750540 -0.504020 0.521940 0.071660 -13.108990 33.763294 8.190182 -38.601399 0.611625 -17.746235 -38.617011 -11.297415 0.355270 3.416489 -1.424956 0.091100 -0.034520 -0.308400 -0.090330 
17.498070 15.756230 -19.818750 -5.737184 -39.545624 -9.899149 -15.620791 14.693008 3.785632 19.489164 -5.695468 14.616462 -21.834305 16.988535 29.558194 1.446435 9.754810 1.206287 0.526730 0.609030 0.386480 17.823840 -8.591181 3.008155 -6.872827 -2.369298 -41.656317 10.618788 -14.391264 43.974529 -1.126592 -6.764014 1.766958 0.008320 -0.439080 0.137960 -1.441903 -7.885354 -8.841842 5.823831 -15.617110 46.081972 -7.586279 -11.576535 -4.470669 13.257349 1.606922 -19.726385 -5.580067 -2.993088 42.410122 -2.202940 -2.058570 -31.848860 -13.122797 -31.085458 10.203080 -8.878783 -21.907187 -4.744738 -43.014384 -58.031716 23.099289 -2.046233 4.278412 0.678280 -0.487690 0.581960 0.107830 -14.934900 33.184032 7.958098 -39.683066 0.197005 -17.614674 -36.950989 -14.066038 1.020082 3.486957 -1.379799 0.211680 -0.041700 -0.291820 -0.003830 
